<svg width="210mm"
     height="297mm"
     version="1.1"
     viewBox="0 0 210 297"
     xmlns="http://www.w3.org/2000/svg">
  <g>
    <path d="m0.49112-4.5764c42.873 3.905 22.143 34.809 41.97 32.357 44.362-5.4864 52.677 11.218 57.563 27.915 5.2735 18.021 3.2321 25.655-28.926 47.639-26.333 18.002-41.269 28.954-20.498 51.633 15.354 24.393 3.4261 53.294 24.608 64.505 23.677 11.991 30.262 25.542 20.078 45.635-7.0402 13.891-31.045 10.238-47.048 8.6189-39.243-3.9698-48.911 6.39-48.911 6.39z"
          fill="#b7c72c" />
    <path d="m1.0346 130.66c17.04 25.017 16.446 7.205 37.96 26.153 7.3574 7.9789 26 34.499 8.3693 47.856-14.437 10.938-27.591 20.894-16.203 34.673 11.388 13.779 28.38-5.3695 31.336 12.123-13.527 66.692-30.19 19.525-62.1 52.169z"
          fill="#548cc6" />
  </g>
</svg>