<svg width="210mm"
     height="297mm"
     version="1.1"
     viewBox="0 0 210 297"
     xmlns="http://www.w3.org/2000/svg">
  <g>
    <path d="m208.71 6.6489c-28.381 3.905-26.764 2.9323-39.815 6.1642-12.382 3.0663-38.41 10.683-42.352 46.09-2.0617 18.516 4.9375 47.571 26.226 69.555 17.432 18.002 29.443 27.351 15.692 50.029s-30.395-1.7993-33.965 26.992c-2.1091 17.013 13.661 13.137 19.09 24.15 5.9115 11.991-14.371 26.611-7.6298 46.704 4.6605 13.891 20.552 10.238 31.145 8.6189 25.978-3.9698 32.378 6.39 32.378 6.39z"
          fill="#add14b" />
    <path d="m211.49 159.8c-21.726 11.921 0.82836 9.9713-32.309 22.875-32.699 15.763-55.159 33.776-36.407 50.095 16.606 14.451 9.2753 5.2523 24.381 21.965 19.123 21.157 2.9651 24.024 20.504 35.619 0 0 21.303 17.421 21.396 7.634 0.42291-44.842 0.33981-35.364 0.44579-39.942 1.3515-58.384-1.463-43.408 1.9896-98.246z"
          fill="#379ed4" />
  </g>
</svg>