<svg xmlns="http://www.w3.org/2000/svg" xmlns:inkscape="http://www.inkscape.org/namespaces/inkscape" version="1.1" id="logo-cic" width="1033" height="563" viewBox="0 0 1033 563">
    <path class="logo" style="display:inline;fill:#b6c62b" d="M 256.5,557.89957 C 201.73608,552.96912 149.43686,531.93958 106,497.38346 94.326143,488.09634 71.929587,465.48044 63.037296,454 40.657527,425.10647 23.903946,392.54819 14.151337,358.99685 7.5069571,336.13858 4.1914055,314.87501 3.3149442,289.5 -1.1482695,160.28255 85.920077,44.365659 211.47878,12.364799 c 25.96688,-6.6181199 46.49574,-8.7890704 76.33058,-8.0720484 28.75139,0.6909831 47.3552,3.5742898 72.89242,11.2972164 32.66814,9.879449 68.18898,28.680554 93.71353,49.60238 12.2784,10.064293 13.09081,11.316759 13.05787,20.130983 L 467.44638,92.5 438.9732,142.87173 c -15.66025,27.70445 -29.80721,51.67781 -31.4377,53.27413 -3.85893,3.77807 -9.08319,5.29901 -15.10152,4.39651 -4.35724,-0.65341 -5.71382,-1.63907 -15.84952,-11.51589 C 355.68848,168.66424 337.09793,157.90733 311.5,151.36716 297.73431,147.85009 273.86214,146.97947 258.85018,149.44704 204.16412,158.43595 161.11744,199.91973 149.32051,255 c -2.55857,11.94604 -2.55857,40.05396 0,52 11.63951,54.3453 52.42152,94.82517 106.49727,105.70827 6.11345,1.23037 13.41607,1.74597 24.68222,1.74266 17.82776,-0.005 29.77695,-2.02237 44.80562,-7.56362 9.0896,-3.35144 27.35302,-14.32356 38.03448,-22.84999 6.45449,-5.15226 24.66379,-23.7151 28.04885,-28.59344 C 392.13083,354.37475 419.16581,306.475 451.46669,249 510.7505,143.51258 519.97543,128.06495 535.07116,109 545.06609,96.377022 568.25921,72.964704 580,63.646521 641.35227,14.953754 722.10328,-5.9345704 798.75541,7.0598091 883.58923,21.441183 957.90794,75.356356 997.49734,151.23893 c 16.83416,32.26676 26.19516,63.20091 30.64246,101.26107 1.7257,14.76891 1.4271,46.56214 -0.5823,62 -14.5512,111.79188 -91.22105,201.76704 -198.49473,232.94143 -47.53148,13.81294 -103.154,14.2022 -150.06277,1.05018 -30.01707,-8.41602 -55.55002,-20.19232 -81.46688,-37.57413 -13.32622,-8.93758 -26.89944,-19.65068 -29.84583,-23.5568 -2.88395,-3.82335 -4.20893,-10.67704 -2.90449,-15.02406 1.2249,-4.08199 56.19463,-102.52412 59.03736,-105.72664 2.36864,-2.66842 9.08069,-5.56205 12.96196,-5.58802 5.81091,-0.0389 9.98077,2.65234 20.48665,13.22208 20.67035,20.79598 45.17257,33.54419 73.58141,38.28353 13.77003,2.29721 38.81835,1.6123 50.74587,-1.38755 25.16327,-6.32875 45.27614,-17.23788 62.63754,-33.97432 52.14463,-50.26756 55.57165,-129.77541 7.96491,-184.78828 -25.56522,-29.54237 -66.61724,-47.07506 -105.59201,-45.09674 -17.56024,0.89134 -39.46941,6.32743 -49.10649,12.18427 -2.2,1.33702 -5.8,3.41772 -8,4.62376 -10.31098,5.65248 -24.55789,16.45439 -31.37031,23.78474 -1.85367,1.9946 -5.97613,6.62909 -9.16103,10.29885 -3.18489,3.66977 -5.94327,6.51975 -6.12973,6.3333 -0.53381,-0.53382 -4.11574,5.75802 -66.8893,117.4944 -32.59847,58.025 -61.90692,109.43368 -65.12987,114.2415 -28.38534,42.34368 -73.79044,79.6999 -121.39153,99.87267 -23.84335,10.10452 -54.43903,18.21095 -78.62486,20.83191 -13.86932,1.50299 -42.59718,2.00741 -54.30337,0.95349 z" id="cicGreen"></path>
    <path class="logo" style="display:inline;fill:#548cc6" d="M 256.5,557.86217 C 202.29489,553.18476 149.44722,531.94782 106,497.38346 94.326143,488.09634 71.929587,465.48044 63.037296,454 40.657527,425.10647 23.903946,392.54819 14.151337,358.99685 7.5069571,336.13858 4.1914055,314.87501 3.3149442,289.5 -1.1482695,160.28255 85.920077,44.365659 211.47878,12.364799 c 25.96688,-6.6181199 46.49574,-8.7890704 76.33058,-8.0720484 28.75139,0.6909831 47.3552,3.5742898 72.89242,11.2972164 32.66814,9.879449 68.18898,28.680554 93.71353,49.60238 12.2784,10.064293 13.09081,11.316759 13.05787,20.130983 L 467.44638,92.5 438.9732,142.87173 c -15.66025,27.70445 -29.80721,51.67781 -31.4377,53.27413 -3.85893,3.77807 -9.08319,5.29901 -15.10152,4.39651 -4.35724,-0.65341 -5.71382,-1.63907 -15.84952,-11.51589 C 355.68848,168.66424 337.09793,157.90733 311.5,151.36716 297.73431,147.85009 273.86214,146.97947 258.85018,149.44704 204.16412,158.43595 161.11744,199.91973 149.32051,255 c -2.55857,11.94604 -2.55857,40.05396 0,52 11.63951,54.3453 52.42152,94.82517 106.49727,105.70827 6.11345,1.23037 13.41607,1.74597 24.68222,1.74266 25.89952,-0.008 43.78963,-4.91082 64.25931,-17.61182 15.0295,-9.32549 23.83812,-16.43974 34.55407,-27.90744 8.79359,-9.4105 8.80778,-9.42028 6.32286,-4.35871 -3.38433,6.8936 -105.39448,188.22138 -107.83237,191.67704 -2.18949,3.10357 -3.16503,3.17739 -21.30387,1.61217 z M 720,556.49543 c -35.10544,-4.30517 -68.246,-14.74409 -98.74525,-31.1037 -18.82132,-10.09564 -48.2621,-30.99758 -53.56746,-38.03105 -2.88395,-3.82335 -4.20893,-10.67704 -2.90449,-15.02406 1.2249,-4.08199 56.19463,-102.52412 59.03736,-105.72664 2.36864,-2.66842 9.08069,-5.56205 12.96196,-5.58802 5.81091,-0.0389 9.98077,2.65234 20.48665,13.22208 20.67035,20.79598 45.17257,33.54419 73.58141,38.28353 13.77003,2.29721 38.81835,1.6123 50.74587,-1.38755 25.16327,-6.32875 45.27614,-17.23788 62.63754,-33.97432 52.14463,-50.26756 55.57165,-129.77541 7.96491,-184.78828 -25.56522,-29.54237 -66.61724,-47.07506 -105.59201,-45.09674 -17.56024,0.89134 -39.46941,6.32743 -49.10649,12.18427 -2.2,1.33702 -5.8,3.41772 -8,4.62376 -10.31098,5.65248 -24.55789,16.45439 -31.37031,23.78474 -1.85367,1.9946 -6.01617,6.6756 -9.25,10.40223 -3.23383,3.72662 -5.87969,6.52416 -5.87969,6.21675 0,-0.3074 1.09277,-2.7154 2.42838,-5.3511 5.04408,-9.954 108.72311,-193.7039772 110.04763,-195.0369996 2.82559,-2.843744 41.7753,1.6291742 64.62608,7.4215486 76.18165,19.311053 141.36124,70.64523 177.39525,139.713051 21.74276,41.6753 31.85306,83.27241 31.78156,130.76107 -0.083,55.21493 -16.0181,107.45767 -46.82033,153.5 -45.43321,67.91222 -117.10307,111.40535 -199.45244,121.03848 -15.21208,1.77949 -48.32917,1.75686 -63.00613,-0.043 z" id="cicBlueL"></path>
    <path class="logo" style="display:inline;fill:#0b5399" d="m 281.36651,544.79729 c 0.35632,-1.4865 13.33176,-34.29493 28.83431,-72.90764 25.42249,-63.32065 28.47122,-70.36108 31.09057,-71.79729 9.59157,-5.25915 22.02485,-14.41782 30.41758,-22.40635 5.30794,-5.05231 9.39967,-8.51101 9.09275,-7.68601 -0.69265,1.86179 -98.80249,176.30969 -99.54515,177 -0.29586,0.275 -0.24639,-0.71622 0.10994,-2.20271 z M 652.23877,190 c 1.41055,-2.475 23.69027,-42.075 49.51049,-88 48.19918,-85.729208 51.77985,-91.944283 50.98723,-88.5 -0.42223,1.834774 -32.63733,82.628485 -50.43969,126.5 -4.12886,10.175 -8.19781,19.28015 -9.04212,20.23367 -0.8443,0.95352 -4.05951,3.14136 -7.14489,4.86187 -8.08999,4.51125 -19.24717,13.06513 -28.44173,21.80545 -7.90136,7.51102 -7.96423,7.54691 -5.42929,3.09901 z" id="cicBlueH"></path>
</svg>